<svg width="53" height="57" viewBox="0 0 53 57" fill="none" xmlns="http://www.w3.org/2000/svg">
<path d="M26.6156 56.0118C18.5015 56.1146 10.386 56.2174 2.27184 56.3216C1.06195 56.3371 0.880891 56.1315 0.958088 54.9346C1.27951 49.9257 1.60514 44.9168 1.89147 39.9051C1.93639 39.1264 2.36167 38.6617 2.93012 38.3533C4.42494 37.5408 5.91274 36.6748 7.49598 36.0749C10.8127 34.8174 14.17 33.6613 17.5471 32.5756C18.9956 32.1095 19.6426 31.0238 20.2419 29.8212C20.2981 29.7086 20.176 29.4171 20.0496 29.3143C17.6172 27.3231 15.9357 24.7954 14.7371 21.9129C14.6346 21.6679 14.4171 21.4637 14.2276 21.2637C12.3791 19.2993 11.4078 16.9773 11.4443 14.2694C11.4611 13.0048 12.031 12.0064 13.1819 11.4249C13.6704 11.1784 13.6746 10.9109 13.4331 10.4786C13.283 10.2082 13.1833 9.87305 13.1777 9.56466C13.1538 7.87485 13.1566 6.18504 13.1707 4.49665C13.1917 1.93236 15.109 0.0116174 17.6734 0.0073929C23.6372 -0.0024643 29.6024 -0.0024643 35.5663 0.0073929C38.0927 0.0116174 40.01 1.89998 40.0549 4.44032C40.0858 6.1766 40.076 7.91287 40.0465 9.64915C40.0409 9.94909 39.8023 10.2392 39.7602 10.5462C39.7237 10.8024 39.7321 11.2531 39.864 11.3164C41.6999 12.2008 41.9764 13.7962 41.728 15.5409C41.4066 17.7968 40.5139 19.8119 38.831 21.4172C38.6528 21.5876 38.5124 21.82 38.4155 22.0481C37.2365 24.8602 35.5873 27.3316 33.1984 29.2565C32.884 29.51 32.9177 29.7043 33.0595 30.0254C33.7065 31.4941 34.7999 32.2968 36.3396 32.8094C40.2107 34.1021 44.0341 35.5412 47.849 36.9958C48.7965 37.3563 49.6526 37.9731 50.5257 38.5139C51.0703 38.8518 51.2976 39.3559 51.3369 40.0417C51.6134 44.9365 51.9391 49.8285 52.2493 54.7205C52.2563 54.8374 52.2661 54.9543 52.2717 55.0711C52.3251 56.1188 52.1258 56.3413 51.0983 56.3202C48.0119 56.2554 44.9254 56.1456 41.8389 56.1216C37.186 56.085 32.5317 56.1062 27.8788 56.1033C27.4578 56.1033 27.0367 56.1033 26.6156 56.1033C26.6156 56.0738 26.6156 56.0428 26.6156 56.0118ZM12.5812 42.4342C12.8675 42.399 13.0738 42.3877 13.2759 42.3483C19.1668 41.2119 25.0576 40.0713 30.9485 38.9321C32.1177 38.7068 33.2854 38.4702 34.4588 38.2702C34.9473 38.1872 35.2799 38.428 35.3529 38.9363C35.4189 39.408 35.1677 39.6883 34.7353 39.8192C34.5795 39.8671 34.4167 39.8911 34.2567 39.922C28.8235 40.9711 23.3902 42.0188 17.9569 43.0679C16.1772 43.4115 14.3974 43.7593 12.6219 44.1043C12.6219 47.5895 12.6219 51.0029 12.6219 54.4304C21.3915 54.4304 30.119 54.4304 38.8759 54.4304C38.8759 52.3097 38.8759 50.2453 38.8759 48.1824C38.8759 44.1001 38.8801 40.0192 38.8717 35.9369C38.8717 35.6989 38.817 35.2821 38.7033 35.2511C37.645 34.9568 36.6807 34.2499 35.4933 34.502C30.5428 35.5553 25.591 36.6002 20.6391 37.6478C18.1267 38.1801 15.6129 38.7054 13.1047 39.256C12.911 39.2982 12.6135 39.5151 12.605 39.6629C12.5573 40.5712 12.5812 41.4809 12.5812 42.4342ZM15.2339 10.7503C15.1932 11.1812 15.2241 11.6009 15.095 11.9628C14.9939 12.2472 14.7427 12.5894 14.4774 12.6866C13.3096 13.1147 12.918 13.5568 13.0177 14.7974C13.1791 16.8196 13.916 18.6051 15.3224 20.1062C15.7238 20.5343 16.1042 21.0356 16.3245 21.5735C17.7829 25.1362 20.2433 27.8258 23.4618 29.8311C26.1566 31.511 28.8066 31.166 31.0622 28.9524C31.1955 28.8214 31.3218 28.6792 31.472 28.5708C34.0883 26.6993 35.8231 24.1632 37.0288 21.2159C37.172 20.8666 37.4302 20.5385 37.7039 20.271C39.3096 18.7009 40.0914 16.7689 40.1995 14.5552C40.236 13.8202 40.0198 13.009 39.2394 12.8584C38.2738 12.6711 38.0155 12.1599 38.0296 11.3094C38.0324 11.1305 37.9762 10.9489 37.9453 10.7503C30.3674 10.7503 22.8217 10.7503 15.2339 10.7503ZM21.6834 30.614C21.5234 30.8928 21.3929 31.1097 21.2722 31.3308C20.5156 32.7319 19.4377 33.6951 17.8671 34.1542C15.808 34.7569 13.7504 35.3933 11.7545 36.1749C9.19432 37.1775 6.69313 38.3364 4.17089 39.4348C3.64595 39.6643 3.4705 40.0699 3.43963 40.6599C3.25014 44.1972 3.01013 47.7303 2.79257 51.2663C2.72239 52.4013 2.66625 53.5376 2.61151 54.5234C5.20533 54.5234 7.70231 54.5065 10.1979 54.5346C10.8225 54.5417 11.0232 54.3755 11.019 53.7094C10.9881 48.8287 11.0134 43.948 10.9923 39.0673C10.9895 38.3223 11.2492 37.9788 11.9903 37.8253C18.6587 36.4467 25.3229 35.0385 31.9857 33.6345C32.4475 33.5374 32.9023 33.4092 33.3332 33.3036C32.7058 32.4066 32.1247 31.5744 31.5268 30.7196C28.2578 33.2924 25.0001 32.8741 21.6834 30.614ZM38.3973 9.08447C38.3973 7.32707 38.4198 5.62037 38.3791 3.91507C38.3706 3.56725 38.1713 3.19268 37.9748 2.8857C37.3615 1.92532 36.4323 1.61412 35.3291 1.61693C29.5337 1.62961 23.7383 1.62257 17.9429 1.62397C17.686 1.62397 17.4277 1.62961 17.1737 1.65918C16.055 1.79014 14.9392 2.68996 14.869 3.79819C14.7567 5.54151 14.8381 7.29609 14.8381 9.08447C22.6814 9.08447 30.5007 9.08447 38.3973 9.08447ZM50.6239 54.7261C50.5944 54.1333 50.5734 53.6235 50.5425 53.1138C50.2843 48.9695 50.012 44.8267 49.7804 40.681C49.7481 40.1023 49.5965 39.6841 49.0688 39.4418C47.1823 38.5758 45.3043 37.6887 43.4025 36.8593C42.4916 36.4622 41.5315 36.1749 40.5293 35.8144C40.5293 42.0765 40.5293 48.2331 40.5293 54.46C43.8769 54.5501 47.1865 54.636 50.6239 54.7261Z" fill="black"/>
</svg>
