<svg width="68" height="38" viewBox="0 0 68 38" fill="none" xmlns="http://www.w3.org/2000/svg">
<path d="M34.4194 37.9067C21.9495 37.3587 12.0854 32.2366 3.9556 23.6586C-0.604512 18.8459 -0.727759 19.9331 4.00841 14.9392C11.6365 6.89594 20.8579 1.77389 32.0381 0.925373C39.9523 0.324339 47.2194 2.71964 53.9803 6.71917C58.8838 9.6227 63.0697 13.3924 66.7407 17.7543C67.5154 18.6736 67.9159 19.4823 66.9608 20.6225C58.3027 30.9329 47.6155 37.2747 34.4194 37.9067ZM2.96082 19.2613C22.4073 42.9094 49.5435 39.2723 65.0945 19.1774C47.3074 -1.98257 21.7559 -2.85319 2.96082 19.2613Z" fill="black"/>
<path d="M19.7575 19.4076C19.7223 11.4263 26.1883 4.89886 34.1113 4.92095C41.9639 4.94305 48.3683 11.3688 48.3859 19.2529C48.4036 27.2387 41.8847 33.8413 34.0453 33.7706C26.2015 33.7043 19.7971 27.2653 19.7575 19.4076ZM21.8527 19.4165C21.8923 26.2444 27.39 31.72 34.1729 31.6802C40.9119 31.6404 46.4184 26.0146 46.348 19.2441C46.2775 12.4383 40.727 6.91851 33.9969 6.95828C27.2711 6.99805 21.813 12.5974 21.8527 19.4165Z" fill="black"/>
<path d="M34.0497 26.8543C29.8901 26.841 26.4921 23.4337 26.5185 19.2971C26.5405 15.1606 29.9605 11.7842 34.1157 11.7886C38.2356 11.7974 41.6865 15.2622 41.6557 19.3634C41.6205 23.5088 38.2092 26.8675 34.0497 26.8543ZM39.5649 19.2706C39.5429 16.2566 37.1176 13.8613 34.0761 13.8524C31.0742 13.848 28.596 16.2964 28.5828 19.2839C28.5696 22.3553 31.1622 24.9274 34.1993 24.8479C37.1924 24.7727 39.5869 22.2802 39.5649 19.2706Z" fill="black"/>
</svg>
