<svg width="28" height="28" viewBox="0 0 28 28" fill="none" xmlns="http://www.w3.org/2000/svg">
<g clip-path="url(#clip0_7_289)">
<path d="M16.0643 24.667H10.6181V14.4123H8.36126V12.8077C8.36126 12.6207 8.36239 12.4337 8.36239 12.2478C8.36465 11.7821 8.36579 11.2993 8.35786 10.8279C8.35672 10.7452 8.35106 10.4947 8.5346 10.3111C8.71701 10.1287 8.96286 10.1321 9.0433 10.1344C9.552 10.1434 10.0709 10.1412 10.5728 10.1389H10.5875C10.5955 10.1389 10.6023 10.1389 10.6091 10.1389C10.6091 10.1344 10.6091 10.1298 10.6091 10.1264C10.6102 9.80458 10.6091 9.48274 10.6079 9.16091C10.6057 8.65208 10.6034 8.12626 10.6102 7.60724C10.634 5.7238 11.5471 4.34578 13.1831 3.7293C13.6409 3.55705 14.0782 3.46073 14.4815 3.44486C15.6201 3.3984 16.7769 3.37687 17.8963 3.35534C18.2701 3.34854 18.6451 3.3406 19.019 3.33267C19.1063 3.32927 19.1742 3.34854 19.2252 3.361C19.2377 3.3644 19.2524 3.3678 19.2671 3.37007L19.5889 3.4324V7.71603H18.7007C18.3347 7.71603 17.9778 7.71603 17.6198 7.71603C17.5394 7.71603 17.4601 7.71603 17.3796 7.7149C17.1712 7.71263 16.9752 7.71036 16.7837 7.72736C16.2682 7.77156 16.0824 7.96987 16.0722 8.48436C16.0665 8.7858 16.0688 9.09518 16.0711 9.39435C16.0733 9.6346 16.0745 9.88164 16.0722 10.1276C16.7565 10.1219 17.4499 10.123 18.1217 10.1253L19.6954 10.1264L19.1663 14.3976H16.0643V24.667ZM11.4112 23.8737H15.2723V13.6043H18.4661L18.7981 10.9197L18.1206 10.9186C17.4159 10.9174 16.6863 10.9163 15.9714 10.922C15.8275 10.9242 15.6145 10.9061 15.4525 10.7429C15.2723 10.5616 15.2769 10.3202 15.278 10.2397C15.2825 9.9621 15.2803 9.67653 15.278 9.40002C15.2757 9.09518 15.2735 8.78014 15.2791 8.4685C15.2972 7.54491 15.7935 7.01569 16.7157 6.93636C16.9446 6.9171 17.17 6.91936 17.3876 6.92163C17.4646 6.92276 17.5405 6.92276 17.6175 6.92276C17.9756 6.92163 18.3336 6.92163 18.7007 6.92276H18.7947V4.13047C18.5001 4.13614 18.2056 4.1418 17.911 4.14747C16.7962 4.169 15.6439 4.19166 14.5132 4.23699C14.1949 4.24946 13.8414 4.32879 13.463 4.47157C12.1352 4.97246 11.4225 6.06037 11.4033 7.61744C11.3965 8.12966 11.3987 8.65208 11.401 9.15751C11.4021 9.48048 11.4033 9.80458 11.4021 10.1276C11.401 10.7112 11.1812 10.9288 10.5909 10.9322H10.5762C10.1094 10.9344 9.62904 10.9367 9.15206 10.9299C9.15886 11.373 9.15659 11.8183 9.15546 12.2512C9.15433 12.4371 9.15433 12.6229 9.15433 12.8088V13.6191H11.4112V23.8737Z" fill="white"/>
<path d="M24.4221 0.00287926C21.9398 0.00174602 19.4574 0.00174602 16.9751 0.00174602H13.9966C12.935 0.00287926 11.8745 0.00174602 10.8141 0.00174602C8.40314 0.000612783 5.90949 -0.000520453 3.45776 0.00401249C1.4241 0.00854544 0.0033655 1.43189 0.00109958 3.46605C-0.00229931 10.5499 -0.00229931 17.6417 0.00109958 24.5431C0.00223254 26.5773 1.4275 27.9972 3.46683 27.9983C7.0096 28.0006 10.6101 28.0006 14.2402 28.0006C17.6368 28.0006 21.0606 28.0006 24.4867 27.9983C26.586 27.9972 27.9977 26.5829 27.9977 24.4785C28 17.5091 27.9988 10.5397 27.9977 3.57144C27.9977 1.40469 26.594 0.00401249 24.4221 0.00287926ZM27.2046 24.4774C27.2046 26.1342 26.1374 27.2051 24.4867 27.2051C17.3977 27.2085 10.3258 27.2085 3.46683 27.2051C1.86935 27.2039 0.795305 26.1342 0.794172 24.5431C0.790774 17.6417 0.790774 10.5499 0.794172 3.46718C0.795305 1.87385 1.86595 0.800678 3.4589 0.797278C4.92948 0.795011 6.41479 0.793878 7.88878 0.793878C8.87105 0.793878 9.8488 0.793878 10.8129 0.795011C11.8745 0.795011 12.9361 0.796145 13.9966 0.795011H16.9751C19.4574 0.795011 21.9386 0.793878 24.4209 0.796145C26.1634 0.797278 27.2046 1.83419 27.2046 3.57144C27.2058 10.5397 27.2069 17.5091 27.2046 24.4774Z" fill="white"/>
</g>
<defs>
<clipPath id="clip0_7_289">
<rect width="28" height="28" fill="white"/>
</clipPath>
</defs>
</svg>
