<svg width="29" height="28" viewBox="0 0 29 28" fill="none" xmlns="http://www.w3.org/2000/svg">
<g clip-path="url(#clip0_5_278)">
<path d="M0.00338089 14.0077C0.00338089 12.038 -0.00401437 10.0673 0.00549382 8.09756C0.0245102 4.09188 3.30906 0.554155 7.44196 0.0851775C7.85926 0.0382797 8.28079 0.0148309 8.70127 0.0138113C12.5605 0.00871375 16.4198 0.0505139 20.278 -0.000461896C24.3771 -0.0544963 28.2163 2.7818 28.9009 7.06581C28.9706 7.50318 28.9949 7.95177 28.996 8.39526C29.0034 12.1195 29.0023 15.8428 28.9992 19.5671C28.997 23.6146 26.2724 26.9178 22.1839 27.7987C21.5986 27.9251 20.9848 27.9832 20.3837 27.9853C16.4589 28.0016 12.5341 28.0036 8.60935 27.9914C4.35813 27.9781 0.81686 25.0837 0.105858 21.0546C0.0329619 20.6437 0.00866322 20.2206 0.00655029 19.8036C-0.00295791 17.8717 0.00232443 15.9397 0.00338089 14.0077ZM14.4875 1.29534C12.5637 1.29534 10.6409 1.29127 8.71712 1.2984C8.32305 1.29942 7.92688 1.31981 7.53704 1.36977C4.04119 1.82243 1.362 4.7199 1.34192 8.11795C1.31868 12.0339 1.33242 15.9489 1.34087 19.8648C1.34192 20.2563 1.37784 20.6539 1.46025 21.0373C2.18815 24.4272 5.0797 26.7017 8.66852 26.7088C12.5553 26.716 16.4409 26.7139 20.3277 26.7058C20.7598 26.7048 21.2003 26.6793 21.624 26.6008C25.2751 25.9248 27.6638 23.1324 27.668 19.5488C27.6712 15.8367 27.6722 12.1246 27.6638 8.41259C27.6627 7.97012 27.6236 7.52255 27.5486 7.0862C26.9665 3.7116 23.8679 1.21888 20.258 1.29127C18.3352 1.32695 16.4103 1.29534 14.4875 1.29534Z" fill="white"/>
<path d="M7.2442 13.9776C7.26745 10.1014 10.5362 6.96641 14.5201 6.99903C18.5928 7.03166 21.7622 10.1707 21.7368 14.1458C21.7125 17.9568 18.4015 21.0123 14.3268 20.9858C10.4485 20.9603 7.22096 17.7672 7.2442 13.9776ZM8.5743 14.0072C8.58803 17.1973 11.2292 19.7165 14.5444 19.7012C17.8205 19.6859 20.4194 17.133 20.4035 13.946C20.3888 10.8059 17.7286 8.26323 14.4789 8.28362C11.1848 8.30299 8.56162 10.8457 8.5743 14.0072Z" fill="white"/>
<path d="M23.7134 6.38015C23.7082 7.09483 23.1239 7.64333 22.3749 7.63619C21.6544 7.62906 21.0828 7.0724 21.0797 6.37301C21.0754 5.65935 21.6639 5.09046 22.4013 5.09352C23.1419 5.09658 23.7177 5.66139 23.7134 6.38015Z" fill="white"/>
</g>
<defs>
<clipPath id="clip0_5_278">
<rect width="29" height="28" fill="white"/>
</clipPath>
</defs>
</svg>
