<svg width="29" height="28" viewBox="0 0 29 28" fill="none" xmlns="http://www.w3.org/2000/svg">
<g clip-path="url(#clip0_7_287)">
<path d="M14.7493 28.0009C10.9898 28.0009 7.26203 27.9997 3.59171 27.9986C1.47963 27.9975 0.00469351 26.5775 0.00352013 24.5434C-0.00117338 17.6408 -0.00117338 10.5502 0.00352013 3.46629C0.00469351 1.43213 1.47611 0.00878958 3.58232 0.00425663C6.12268 -0.000276312 8.70411 0.000856924 11.2011 0.00199016C12.2993 0.00199016 13.3976 0.0031234 14.4971 0.0031234H17.5819C20.1527 0.0031234 22.7236 0.00199016 25.2945 0.00425663C27.5438 0.00538987 28.9977 1.40607 28.9988 3.57282C29 10.5422 29 17.5105 28.9988 24.4799C28.9988 26.5843 27.5368 27.9997 25.3625 28.0009C21.8131 28.0009 18.2671 28.0009 14.7493 28.0009ZM8.17139 0.794122C6.64483 0.794122 5.10653 0.795255 3.58349 0.797522C1.9349 0.800922 0.826057 1.8741 0.824884 3.46743C0.82019 10.5513 0.82019 17.6419 0.824884 24.5434C0.826057 26.1344 1.93842 27.2042 3.59288 27.2053C10.6965 27.2087 18.0219 27.2087 25.3625 27.2053C27.0721 27.2042 28.1775 26.1344 28.1786 24.4776C28.1798 17.5082 28.1798 10.54 28.1786 3.57168C28.1786 1.83443 27.1003 0.797522 25.2957 0.796389C22.7236 0.794122 20.1527 0.795255 17.5819 0.795255H14.4971C13.3988 0.795255 12.2993 0.795255 11.2011 0.794122C10.2025 0.794122 9.18989 0.794122 8.17139 0.794122ZM10.5393 22.5387H6.13207V10.3076H10.5393V22.5387ZM6.95343 21.7454H9.71791V11.1009H6.95343V21.7454ZM16.4836 22.533H12.1656V10.2986H16.4308L16.4707 11.1338C17.7978 9.92801 19.4957 9.59937 21.4188 10.1864C23.2528 10.7462 24.303 12.1843 24.3769 14.2377C24.4438 16.0769 24.4297 17.9468 24.4168 19.7543C24.4109 20.4932 24.4062 21.2581 24.4062 22.0083C24.4062 22.1386 24.3487 22.2315 24.3182 22.2814C24.3124 22.2905 24.3053 22.3007 24.2995 22.3143L24.1856 22.533H19.9838L19.965 22.1556C19.9627 22.0978 19.958 22.0389 19.9544 21.9788C19.9451 21.8406 19.9368 21.6978 19.9368 21.5505C19.9357 20.9295 19.9357 20.3084 19.9368 19.6874C19.9368 18.646 19.9368 17.5694 19.9321 16.5121C19.931 16.1563 19.9063 15.7925 19.8606 15.431C19.735 14.444 19.2434 13.9589 18.3587 13.9487C18.3493 13.9487 18.3387 13.9487 18.3281 13.9487C17.3167 13.9487 16.6608 14.4983 16.5728 15.4231C16.4942 16.239 16.493 17.0855 16.4918 17.9037C16.4918 18.1598 16.4906 18.4159 16.4883 18.6709C16.4801 19.4642 16.4812 20.2416 16.4836 21.0643C16.4848 21.419 16.4848 21.776 16.4848 22.1364V22.533H16.4836ZM12.9869 21.7397H15.6622C15.6622 21.5142 15.6611 21.2898 15.6611 21.0655C15.6587 20.2393 15.6575 19.4597 15.6658 18.6619C15.6681 18.408 15.6693 18.1553 15.6693 17.9015C15.6704 17.0651 15.6728 16.2016 15.7538 15.3494C15.8817 14.0133 16.8896 13.1543 18.327 13.1543C18.3399 13.1543 18.3528 13.1543 18.3657 13.1543C19.6588 13.1679 20.5001 13.9623 20.6737 15.3324C20.7242 15.7245 20.75 16.12 20.7512 16.5064C20.7559 17.5671 20.7559 18.6437 20.7559 19.6863C20.7559 20.3073 20.7559 20.9283 20.7559 21.5482C20.7559 21.6105 20.7582 21.674 20.7606 21.7386H23.5849C23.586 21.0723 23.5907 20.3991 23.5954 19.7464C23.6083 17.9468 23.6224 16.0871 23.5567 14.2638C23.5133 13.0671 23.0651 11.5191 21.1712 10.9411C19.3478 10.3847 17.8306 10.7689 16.6643 12.0846C16.6232 12.1299 16.581 12.1741 16.52 12.2364C16.4883 12.2693 16.4507 12.3067 16.405 12.3543L15.7397 13.0444L15.647 11.0918H12.9881V21.7397H12.9869ZM8.32393 9.54611C8.32159 9.54611 8.32041 9.54611 8.31807 9.54611C7.61873 9.54497 6.96868 9.28546 6.48643 8.8163C5.99947 8.34261 5.73429 7.70233 5.73899 7.01559C5.74368 6.33225 6.01473 5.6999 6.50403 5.23527C6.98628 4.77745 7.63399 4.52587 8.33097 4.52587C8.34036 4.52587 8.34975 4.52587 8.36031 4.52587C9.79065 4.5406 10.9147 5.63644 10.9183 7.02239C10.9194 7.7046 10.6496 8.34148 10.1567 8.81743C9.66862 9.28773 9.01857 9.54611 8.32393 9.54611ZM8.32041 8.75284C8.32159 8.75284 8.32276 8.75284 8.32511 8.75284C8.80032 8.75284 9.24386 8.57605 9.57593 8.25535C9.91269 7.93011 10.0981 7.49268 10.0969 7.02352C10.0946 6.07727 9.32834 5.3282 8.35209 5.318C8.34505 5.318 8.33919 5.318 8.33215 5.318C7.85224 5.318 7.4087 5.48912 7.08133 5.79963C6.74926 6.11467 6.56504 6.54869 6.56152 7.01899C6.558 7.49381 6.73987 7.93351 7.07077 8.25648C7.39697 8.57605 7.8405 8.75171 8.32041 8.75284Z" fill="white"/>
</g>
<defs>
<clipPath id="clip0_7_287">
<rect width="29" height="28" fill="white"/>
</clipPath>
</defs>
</svg>
