<svg width="78" height="73" viewBox="0 0 78 73" fill="none" xmlns="http://www.w3.org/2000/svg">
<g clip-path="url(#clip0_5_193)">
<path d="M0 12.1641C2.184 10.8971 4.33875 9.5778 6.5585 8.37306C18.8825 1.67165 32.0482 -0.96046 45.9647 0.437439C56.888 1.53743 66.9695 5.15494 76.1833 11.195C76.7552 11.5683 77.3923 11.8432 78 12.1674C78 12.2754 78 12.3867 78 12.4947C77.3792 13.2935 76.7585 14.0923 76.1735 14.8518C51.3402 -0.603619 26.624 -0.597072 1.79075 14.8715C1.222 14.1152 0.611 13.3033 0 12.4947C0 12.3834 0 12.2754 0 12.1641Z" fill="black"/>
<path d="M69.3647 24.8205C68.7667 25.6913 68.224 26.4836 67.6 27.397C58.9647 21.2521 49.465 18.0765 39.0162 18.0765C28.5642 18.0765 19.058 21.2325 10.387 27.4133C9.75646 26.4836 9.19096 25.6586 8.63196 24.8336C25.9025 11.6141 51.6977 11.4079 69.3647 24.8205Z" fill="black"/>
<path d="M19.6365 40.7245C19.0515 39.9028 18.4665 39.0778 17.8848 38.2594C28.9738 28.9258 48.854 28.916 60.1023 38.2463C59.5238 39.0647 58.942 39.893 58.3603 40.718C45.422 32.2946 32.5845 32.2847 19.6365 40.7245Z" fill="black"/>
<path d="M38.9772 58.8803C36.3512 58.8672 34.1445 56.6443 34.1347 53.9958C34.125 51.2851 36.413 49.0164 39.104 49.0753C41.7267 49.131 43.901 51.3964 43.8685 54.0416C43.8327 56.6868 41.6032 58.8934 38.9772 58.8803Z" fill="black"/>
</g>
<defs>
<clipPath id="clip0_5_193">
<rect width="78" height="72" fill="white" transform="translate(0 0.0742188)"/>
</clipPath>
</defs>
</svg>
